<svg width="1920" height="1080" viewBox="0 0 1920 1080" fill="none" xmlns="http://www.w3.org/2000/svg">
<g clip-path="url(#clip0_309_1451)">
<rect width="1920" height="1080" fill="url(#paint0_linear_309_1451)"/>
<g opacity="0.05">
<path d="M0.322723 1090.36V1128.92H-19V1090.36H0.322723ZM19.6607 1051.8V1090.36H0.322723V1051.8H19.6607ZM116.32 1109.65V1090.36H135.643V1051.8H116.32V1032.51H96.9821V1013.23H77.6441V993.939H58.3061V974.651H38.9682V955.363H19.6302V897.561H38.9682V878.273H58.3061V859H135.628V878.288H77.6289V897.576H58.2909V936.136H77.6289V955.424H96.9668V974.712H116.305V994H135.628V1013.29H154.965V1032.58H174.303V1090.42H154.965V1109.71H135.628V1129H38.9682V1109.71H116.29L116.32 1109.65ZM38.9986 1090.36V1109.65H19.6607V1090.36H38.9986ZM154.981 878.288V897.576H135.643V878.288H154.981ZM174.303 897.561V936.121H154.965V897.561H174.303ZM193.641 859V897.561H174.303V859H193.641Z" fill="#353437" style="fill:#353437;fill:color(display-p3 0.2093 0.2025 0.2161);fill-opacity:1;"/>
<path d="M259.351 1109.65V878.288H240.013V859H317.335V878.288H298.012V993.97H413.994V878.288H394.656V859H471.977V878.288H452.64V1109.65H471.977V1128.94H394.656V1109.65H413.994V1013.24H298.012V1109.65H317.335V1128.94H240.013V1109.65H259.351Z" fill="#353437" style="fill:#353437;fill:color(display-p3 0.2093 0.2025 0.2161);fill-opacity:1;"/>
<path d="M537.716 1109.65V878.288H518.394V859H692.374V897.561H673.036V878.273H576.377V993.954H653.698V974.667H673.021V1032.51H653.698V1013.23H576.377V1109.64H673.036V1090.35H692.374V1128.91H518.394V1109.62H537.716V1109.65ZM711.697 897.561V916.848H692.359V897.561H711.697ZM711.697 1051.8V1090.36H692.359V1051.8H711.697Z" fill="#353437" style="fill:#353437;fill:color(display-p3 0.2093 0.2025 0.2161);fill-opacity:1;"/>
<path d="M997.774 1109.65V1090.36H1017.11V1051.8H997.774V1032.51H959.113V1013.23H920.452V993.939H881.792V974.651H862.454V897.561H881.792V878.273H901.13V859H997.789V878.288H920.468V897.576H901.13V955.424H939.79V974.712H978.451V994H997.789V1013.29H1036.45V1032.58H1055.79V1090.42H1036.45V1109.71H1017.11V1129H920.452V1109.71H997.774V1109.65ZM901.13 1071.09V1090.38H881.792V1128.94H862.454V1051.82H881.792V1071.09H901.13ZM920.452 1090.36V1109.65H901.114V1090.36H920.452ZM1017.11 878.288V897.576H997.774V878.288H1017.11ZM1017.11 916.848V897.561H1036.45V859H1055.79V936.121H1036.45V916.833H1017.11V916.848Z" fill="#353437" style="fill:#353437;fill:color(display-p3 0.2093 0.2025 0.2161);fill-opacity:1;"/>
<path d="M1090.56 1109.65V1071.09H1109.9V1013.24H1129.22V936.121H1148.56V878.288H1129.22V859H1206.55V878.288H1187.21V936.136H1167.87V993.985H1283.85V936.136H1303.19V878.288H1283.85V859H1361.17V878.288H1341.85V936.136H1322.51V1013.26H1303.17V1071.11H1283.84V1109.67H1303.17V1128.95H1225.85V1109.67H1245.18V1071.11H1264.51V1013.26H1148.53V1071.11H1129.19V1109.67H1148.53V1128.95H1071.21V1109.67H1090.55L1090.56 1109.65Z" fill="#353437" style="fill:#353437;fill:color(display-p3 0.2093 0.2025 0.2161);fill-opacity:1;"/>
<path d="M1407.57 1109.65V878.288H1388.24V859H1465.56V878.288H1446.22V1109.65H1465.56V1128.94H1388.24V1109.65H1407.57Z" fill="#353437" style="fill:#353437;fill:color(display-p3 0.2093 0.2025 0.2161);fill-opacity:1;"/>
<path d="M1531.28 1109.65V878.288H1511.94V859H1666.59V878.288H1685.91V897.576H1705.25V974.697H1685.91V993.985H1647.25V974.697H1666.59V897.561H1647.25V878.273H1569.93V1013.24H1608.59V1032.53H1569.93V1109.65H1608.59V1128.94H1511.93V1109.65H1531.27H1531.28ZM1647.26 993.97V1013.26H1608.6V993.97H1647.26Z" fill="#353437" style="fill:#353437;fill:color(display-p3 0.2093 0.2025 0.2161);fill-opacity:1;"/>
<path d="M1886.97 1109.65V1090.36H1906.31V1051.8H1886.97V1032.51H1848.31V1013.23H1809.65V993.939H1770.99V974.651H1751.65V897.561H1770.99V878.273H1790.33V859H1886.99V878.288H1809.66V897.576H1790.34V955.424H1829V974.712H1867.66V994H1887V1013.29H1925.66V1032.58H1945V1090.42H1925.66V1109.71H1906.34V1129H1809.68V1109.71H1887L1886.97 1109.65ZM1790.31 1071.09V1090.38H1770.97V1128.94H1751.64V1051.82H1770.97V1071.09H1790.31ZM1809.65 1090.36V1109.65H1790.33V1090.36H1809.65ZM1906.29 878.288V897.576H1886.96V878.288H1906.29ZM1906.29 916.848V897.561H1925.62V859H1944.95V936.121H1925.62V916.833H1906.29V916.848Z" fill="#353437" style="fill:#353437;fill:color(display-p3 0.2093 0.2025 0.2161);fill-opacity:1;"/>
</g>
<g opacity="0.05">
<path d="M0.322723 793.363V831.924H-19V793.363H0.322723ZM19.6607 754.803V793.363H0.322723V754.803H19.6607ZM116.32 812.651V793.363H135.643V754.803H116.32V735.515H96.9821V716.227H77.6441V696.939H58.3061V677.651H38.9682V658.363H19.6302V600.561H38.9682V581.273H58.3061V562H135.628V581.288H77.6289V600.576H58.2909V639.136H77.6289V658.424H96.9668V677.712H116.305V697H135.628V716.288H154.965V735.576H174.303V793.424H154.965V812.712H135.628V832H38.9682V812.712H116.29L116.32 812.651ZM38.9986 793.363V812.651H19.6607V793.363H38.9986ZM154.981 581.288V600.576H135.643V581.288H154.981ZM174.303 600.561V639.121H154.965V600.561H174.303ZM193.641 562V600.561H174.303V562H193.641Z" fill="#353437" style="fill:#353437;fill:color(display-p3 0.2093 0.2025 0.2161);fill-opacity:1;"/>
<path d="M259.351 812.651V581.288H240.013V562H317.335V581.288H298.012V696.97H413.994V581.288H394.656V562H471.977V581.288H452.64V812.651H471.977V831.939H394.656V812.651H413.994V716.242H298.012V812.651H317.335V831.939H240.013V812.651H259.351Z" fill="#353437" style="fill:#353437;fill:color(display-p3 0.2093 0.2025 0.2161);fill-opacity:1;"/>
<path d="M537.716 812.651V581.288H518.394V562H692.374V600.561H673.036V581.273H576.377V696.954H653.698V677.667H673.021V735.515H653.698V716.227H576.377V812.636H673.036V793.348H692.374V831.909H518.394V812.621H537.716V812.651ZM711.697 600.561V619.848H692.359V600.561H711.697ZM711.697 754.803V793.363H692.359V754.803H711.697Z" fill="#353437" style="fill:#353437;fill:color(display-p3 0.2093 0.2025 0.2161);fill-opacity:1;"/>
<path d="M997.774 812.651V793.363H1017.11V754.803H997.774V735.515H959.113V716.227H920.452V696.939H881.792V677.651H862.454V600.561H881.792V581.273H901.13V562H997.789V581.288H920.468V600.576H901.13V658.424H939.79V677.712H978.451V697H997.789V716.288H1036.45V735.576H1055.79V793.424H1036.45V812.712H1017.11V832H920.452V812.712H997.774V812.651ZM901.13 774.091V793.379H881.792V831.939H862.454V754.818H881.792V774.091H901.13ZM920.452 793.363V812.651H901.114V793.363H920.452ZM1017.11 581.288V600.576H997.774V581.288H1017.11ZM1017.11 619.848V600.561H1036.45V562H1055.79V639.121H1036.45V619.833H1017.11V619.848Z" fill="#353437" style="fill:#353437;fill:color(display-p3 0.2093 0.2025 0.2161);fill-opacity:1;"/>
<path d="M1090.56 812.651V774.091H1109.9V716.242H1129.22V639.121H1148.56V581.288H1129.22V562H1206.55V581.288H1187.21V639.136H1167.87V696.985H1283.85V639.136H1303.19V581.288H1283.85V562H1361.17V581.288H1341.85V639.136H1322.51V716.257H1303.17V774.106H1283.84V812.667H1303.17V831.954H1225.85V812.667H1245.18V774.106H1264.51V716.257H1148.53V774.106H1129.19V812.667H1148.53V831.954H1071.21V812.667H1090.55L1090.56 812.651Z" fill="#353437" style="fill:#353437;fill:color(display-p3 0.2093 0.2025 0.2161);fill-opacity:1;"/>
<path d="M1407.57 812.651V581.288H1388.24V562H1465.56V581.288H1446.22V812.651H1465.56V831.939H1388.24V812.651H1407.57Z" fill="#353437" style="fill:#353437;fill:color(display-p3 0.2093 0.2025 0.2161);fill-opacity:1;"/>
<path d="M1531.28 812.651V581.288H1511.94V562H1666.59V581.288H1685.91V600.576H1705.25V677.697H1685.91V696.985H1647.25V677.697H1666.59V600.561H1647.25V581.273H1569.93V716.242H1608.59V735.53H1569.93V812.651H1608.59V831.939H1511.93V812.651H1531.27H1531.28ZM1647.26 696.97V716.257H1608.6V696.97H1647.26Z" fill="#353437" style="fill:#353437;fill:color(display-p3 0.2093 0.2025 0.2161);fill-opacity:1;"/>
<path d="M1886.97 812.651V793.363H1906.31V754.803H1886.97V735.515H1848.31V716.227H1809.65V696.939H1770.99V677.651H1751.65V600.561H1770.99V581.273H1790.33V562H1886.99V581.288H1809.66V600.576H1790.34V658.424H1829V677.712H1867.66V697H1887V716.288H1925.66V735.576H1945V793.424H1925.66V812.712H1906.34V832H1809.68V812.712H1887L1886.97 812.651ZM1790.31 774.091V793.379H1770.97V831.939H1751.64V754.818H1770.97V774.091H1790.31ZM1809.65 793.363V812.651H1790.33V793.363H1809.65ZM1906.29 581.288V600.576H1886.96V581.288H1906.29ZM1906.29 619.848V600.561H1925.62V562H1944.95V639.121H1925.62V619.833H1906.29V619.848Z" fill="#353437" style="fill:#353437;fill:color(display-p3 0.2093 0.2025 0.2161);fill-opacity:1;"/>
</g>
<g opacity="0.05">
<path d="M0.322723 199.363V237.924H-19V199.363H0.322723ZM19.6607 160.803V199.363H0.322723V160.803H19.6607ZM116.32 218.651V199.363H135.643V160.803H116.32V141.515H96.9821V122.227H77.6441V102.939H58.3061V83.6513H38.9682V64.3634H19.6302V6.56057H38.9682V-12.7273H58.3061V-32H135.628V-12.7121H77.6289V6.57577H58.2909V45.1363H77.6289V64.4242H96.9668V83.7121H116.305V103H135.628V122.288H154.965V141.576H174.303V199.424H154.965V218.712H135.628V238H38.9682V218.712H116.29L116.32 218.651ZM38.9986 199.363V218.651H19.6607V199.363H38.9986ZM154.981 -12.7121V6.57577H135.643V-12.7121H154.981ZM174.303 6.56057V45.1211H154.965V6.56057H174.303ZM193.641 -32V6.56057H174.303V-32H193.641Z" fill="#353437" style="fill:#353437;fill:color(display-p3 0.2093 0.2025 0.2161);fill-opacity:1;"/>
<path d="M259.351 218.651V-12.7121H240.013V-32H317.335V-12.7121H298.012V102.97H413.994V-12.7121H394.656V-32H471.977V-12.7121H452.64V218.651H471.977V237.939H394.656V218.651H413.994V122.242H298.012V218.651H317.335V237.939H240.013V218.651H259.351Z" fill="#353437" style="fill:#353437;fill:color(display-p3 0.2093 0.2025 0.2161);fill-opacity:1;"/>
<path d="M537.716 218.651V-12.7121H518.394V-32H692.374V6.56057H673.036V-12.7273H576.377V102.954H653.698V83.6665H673.021V141.515H653.698V122.227H576.377V218.636H673.036V199.348H692.374V237.909H518.394V218.621H537.716V218.651ZM711.697 6.56057V25.8485H692.359V6.56057H711.697ZM711.697 160.803V199.363H692.359V160.803H711.697Z" fill="#353437" style="fill:#353437;fill:color(display-p3 0.2093 0.2025 0.2161);fill-opacity:1;"/>
<path d="M997.774 218.651V199.363H1017.11V160.803H997.774V141.515H959.113V122.227H920.452V102.939H881.792V83.6513H862.454V6.56057H881.792V-12.7273H901.13V-32H997.789V-12.7121H920.468V6.57577H901.13V64.4242H939.79V83.7121H978.451V103H997.789V122.288H1036.45V141.576H1055.79V199.424H1036.45V218.712H1017.11V238H920.452V218.712H997.774V218.651ZM901.13 180.091V199.379H881.792V237.939H862.454V160.818H881.792V180.091H901.13ZM920.452 199.363V218.651H901.114V199.363H920.452ZM1017.11 -12.7121V6.57577H997.774V-12.7121H1017.11ZM1017.11 25.8485V6.56057H1036.45V-32H1055.79V45.1211H1036.45V25.8333H1017.11V25.8485Z" fill="#353437" style="fill:#353437;fill:color(display-p3 0.2093 0.2025 0.2161);fill-opacity:1;"/>
<path d="M1090.56 218.651V180.091H1109.9V122.242H1129.22V45.1212H1148.56V-12.7121H1129.22V-32H1206.55V-12.7121H1187.21V45.1364H1167.87V102.985H1283.85V45.1364H1303.19V-12.7121H1283.85V-32H1361.17V-12.7121H1341.85V45.1364H1322.51V122.257H1303.17V180.106H1283.84V218.667H1303.17V237.954H1225.85V218.667H1245.18V180.106H1264.51V122.257H1148.53V180.106H1129.19V218.667H1148.53V237.954H1071.21V218.667H1090.55L1090.56 218.651Z" fill="#353437" style="fill:#353437;fill:color(display-p3 0.2093 0.2025 0.2161);fill-opacity:1;"/>
<path d="M1407.57 218.651V-12.7121H1388.24V-32H1465.56V-12.7121H1446.22V218.651H1465.56V237.939H1388.24V218.651H1407.57Z" fill="#353437" style="fill:#353437;fill:color(display-p3 0.2093 0.2025 0.2161);fill-opacity:1;"/>
<path d="M1531.28 218.651V-12.7121H1511.94V-32H1666.59V-12.7121H1685.91V6.57577H1705.25V83.6969H1685.91V102.985H1647.25V83.6969H1666.59V6.56057H1647.25V-12.7273H1569.93V122.242H1608.59V141.53H1569.93V218.651H1608.59V237.939H1511.93V218.651H1531.27H1531.28ZM1647.26 102.97V122.257H1608.6V102.97H1647.26Z" fill="#353437" style="fill:#353437;fill:color(display-p3 0.2093 0.2025 0.2161);fill-opacity:1;"/>
<path d="M1886.97 218.651V199.363H1906.31V160.803H1886.97V141.515H1848.31V122.227H1809.65V102.939H1770.99V83.6513H1751.65V6.56057H1770.99V-12.7273H1790.33V-32H1886.99V-12.7121H1809.66V6.57577H1790.34V64.4242H1829V83.7121H1867.66V103H1887V122.288H1925.66V141.576H1945V199.424H1925.66V218.712H1906.34V238H1809.68V218.712H1887L1886.97 218.651ZM1790.31 180.091V199.379H1770.97V237.939H1751.64V160.818H1770.97V180.091H1790.31ZM1809.65 199.363V218.651H1790.33V199.363H1809.65ZM1906.29 -12.7121V6.57577H1886.96V-12.7121H1906.29ZM1906.29 25.8485V6.56057H1925.62V-32H1944.95V45.1211H1925.62V25.8333H1906.29V25.8485Z" fill="#353437" style="fill:#353437;fill:color(display-p3 0.2093 0.2025 0.2161);fill-opacity:1;"/>
</g>
<g opacity="0.05">
<path d="M0.322723 496.363V534.924H-19V496.363H0.322723ZM19.6607 457.803V496.363H0.322723V457.803H19.6607ZM116.32 515.651V496.363H135.643V457.803H116.32V438.515H96.9821V419.227H77.6441V399.939H58.3061V380.651H38.9682V361.363H19.6302V303.561H38.9682V284.273H58.3061V265H135.628V284.288H77.6289V303.576H58.2909V342.136H77.6289V361.424H96.9668V380.712H116.305V400H135.628V419.288H154.965V438.576H174.303V496.424H154.965V515.712H135.628V535H38.9682V515.712H116.29L116.32 515.651ZM38.9986 496.363V515.651H19.6607V496.363H38.9986ZM154.981 284.288V303.576H135.643V284.288H154.981ZM174.303 303.561V342.121H154.965V303.561H174.303ZM193.641 265V303.561H174.303V265H193.641Z" fill="#353437" style="fill:#353437;fill:color(display-p3 0.2093 0.2025 0.2161);fill-opacity:1;"/>
<path d="M259.351 515.651V284.288H240.013V265H317.335V284.288H298.012V399.97H413.994V284.288H394.656V265H471.977V284.288H452.64V515.651H471.977V534.939H394.656V515.651H413.994V419.242H298.012V515.651H317.335V534.939H240.013V515.651H259.351Z" fill="#353437" style="fill:#353437;fill:color(display-p3 0.2093 0.2025 0.2161);fill-opacity:1;"/>
<path d="M537.716 515.651V284.288H518.394V265H692.374V303.561H673.036V284.273H576.377V399.954H653.698V380.667H673.021V438.515H653.698V419.227H576.377V515.636H673.036V496.348H692.374V534.909H518.394V515.621H537.716V515.651ZM711.697 303.561V322.848H692.359V303.561H711.697ZM711.697 457.803V496.363H692.359V457.803H711.697Z" fill="#353437" style="fill:#353437;fill:color(display-p3 0.2093 0.2025 0.2161);fill-opacity:1;"/>
<path d="M997.774 515.651V496.363H1017.11V457.803H997.774V438.515H959.113V419.227H920.452V399.939H881.792V380.651H862.454V303.561H881.792V284.273H901.13V265H997.789V284.288H920.468V303.576H901.13V361.424H939.79V380.712H978.451V400H997.789V419.288H1036.45V438.576H1055.79V496.424H1036.45V515.712H1017.11V535H920.452V515.712H997.774V515.651ZM901.13 477.091V496.379H881.792V534.939H862.454V457.818H881.792V477.091H901.13ZM920.452 496.363V515.651H901.114V496.363H920.452ZM1017.11 284.288V303.576H997.774V284.288H1017.11ZM1017.11 322.848V303.561H1036.45V265H1055.79V342.121H1036.45V322.833H1017.11V322.848Z" fill="#353437" style="fill:#353437;fill:color(display-p3 0.2093 0.2025 0.2161);fill-opacity:1;"/>
<path d="M1090.56 515.651V477.091H1109.9V419.242H1129.22V342.121H1148.56V284.288H1129.22V265H1206.55V284.288H1187.21V342.136H1167.87V399.985H1283.85V342.136H1303.19V284.288H1283.85V265H1361.17V284.288H1341.85V342.136H1322.51V419.257H1303.17V477.106H1283.84V515.667H1303.17V534.954H1225.85V515.667H1245.18V477.106H1264.51V419.257H1148.53V477.106H1129.19V515.667H1148.53V534.954H1071.21V515.667H1090.55L1090.56 515.651Z" fill="#353437" style="fill:#353437;fill:color(display-p3 0.2093 0.2025 0.2161);fill-opacity:1;"/>
<path d="M1407.57 515.651V284.288H1388.24V265H1465.56V284.288H1446.22V515.651H1465.56V534.939H1388.24V515.651H1407.57Z" fill="#353437" style="fill:#353437;fill:color(display-p3 0.2093 0.2025 0.2161);fill-opacity:1;"/>
<path d="M1531.28 515.651V284.288H1511.94V265H1666.59V284.288H1685.91V303.576H1705.25V380.697H1685.91V399.985H1647.25V380.697H1666.59V303.561H1647.25V284.273H1569.93V419.242H1608.59V438.53H1569.93V515.651H1608.59V534.939H1511.93V515.651H1531.27H1531.28ZM1647.26 399.97V419.257H1608.6V399.97H1647.26Z" fill="#353437" style="fill:#353437;fill:color(display-p3 0.2093 0.2025 0.2161);fill-opacity:1;"/>
<path d="M1886.97 515.651V496.363H1906.31V457.803H1886.97V438.515H1848.31V419.227H1809.65V399.939H1770.99V380.651H1751.65V303.561H1770.99V284.273H1790.33V265H1886.99V284.288H1809.66V303.576H1790.34V361.424H1829V380.712H1867.66V400H1887V419.288H1925.66V438.576H1945V496.424H1925.66V515.712H1906.34V535H1809.68V515.712H1887L1886.97 515.651ZM1790.31 477.091V496.379H1770.97V534.939H1751.64V457.818H1770.97V477.091H1790.31ZM1809.65 496.363V515.651H1790.33V496.363H1809.65ZM1906.29 284.288V303.576H1886.96V284.288H1906.29ZM1906.29 322.848V303.561H1925.62V265H1944.95V342.121H1925.62V322.833H1906.29V322.848Z" fill="#353437" style="fill:#353437;fill:color(display-p3 0.2093 0.2025 0.2161);fill-opacity:1;"/>
</g>
<rect x="82" y="73" width="1756" height="934" fill="#0C0C0C" style="fill:#0C0C0C;fill:color(display-p3 0.0471 0.0471 0.0471);fill-opacity:1;"/>
<rect x="82.5" y="73.5" width="1755" height="933" stroke="url(#paint1_linear_309_1451)"/>
<path d="M1142.22 1047.78C1143 1048.17 1143.86 1048.11 1144.65 1047.83L1145.62 1047.85L1145.97 1048.85C1146.36 1050.01 1145.72 1050.89 1146.2 1051.38C1146.31 1051.49 1146.73 1051.43 1146.82 1051.39C1146.41 1050.7 1146.64 1049.57 1146.84 1048.9C1147.08 1049.87 1146.78 1050.89 1147.17 1051.44L1147.88 1051.42L1147.6 1050.89C1147.54 1050.18 1147.56 1049.49 1147.73 1048.81L1148.31 1048.22C1148.37 1047.79 1148.69 1047.24 1149.1 1047.14C1149.81 1046.98 1149.75 1046.44 1150 1045.95C1150.35 1045.29 1150.76 1044.59 1150.48 1043.8C1150.78 1043.51 1150.8 1043.1 1150.88 1042.69C1150.94 1042.42 1151.16 1042.11 1151.18 1041.79C1151.23 1041 1152.12 1041.63 1152.5 1041.23C1152.62 1041.1 1152.79 1040.65 1152.68 1040.49L1152.05 1039.56L1151.63 1038.84C1151.3 1038.26 1151.04 1038.22 1150.47 1038.09C1149.91 1037.96 1149.63 1037.94 1149.1 1038.25C1148.82 1038.42 1148.59 1038.59 1148.32 1038.84C1147.95 1039.18 1147.31 1039.34 1147.45 1040.11C1146.89 1040.06 1146.54 1040.33 1146.37 1040.83C1145.9 1040.55 1145.44 1040.84 1145.1 1041.13C1144.42 1040.87 1143.61 1040.82 1142.95 1041.16C1142.57 1040.97 1142.02 1040.66 1141.57 1041.13C1141.05 1040.45 1140.5 1040.85 1139.98 1041.02C1139.55 1041.16 1139.05 1040.99 1138.69 1041.35C1138.22 1041.82 1137.91 1043.45 1138.2 1044.03C1137.89 1044.83 1137.9 1045.69 1138.51 1046.35C1138.43 1046.8 1138.39 1047.35 1138.73 1047.71C1138.74 1047.97 1138.77 1048.29 1138.84 1048.57C1139.28 1050.39 1138.33 1051.36 1139.12 1051.43C1139.35 1051.45 1139.67 1051.43 1139.95 1051.41C1139.45 1050.67 1139.37 1049.83 1139.86 1049.08C1140.1 1049.64 1140.08 1050.33 1140.02 1050.84C1140 1051.02 1140.2 1051.4 1140.36 1051.42C1140.63 1051.44 1141 1051.43 1141.33 1051.41L1140.85 1050.62C1140.71 1049.95 1140.68 1049.14 1140.73 1048.53L1141.53 1048.2C1141.78 1048.1 1142.02 1048.13 1142.22 1047.78V1047.78Z" fill="#FAFAFA" style="fill:#FAFAFA;fill:color(display-p3 0.9804 0.9804 0.9804);fill-opacity:1;"/>
<path d="M770.826 1046.77V1047.65C770.826 1049.06 771.744 1049.87 773.346 1049.87H773.49C775.092 1049.87 776.028 1049.07 776.028 1047.72V1047.62C776.028 1046.84 775.686 1046.28 775.11 1046.05L771.618 1044.7C770.178 1044.12 769.422 1043.13 769.422 1041.78V1041.57C769.422 1039.46 770.916 1038.22 773.436 1038.22C775.938 1038.22 777.396 1039.44 777.396 1041.57V1042.22H775.848V1041.73C775.848 1040.33 775.002 1039.52 773.472 1039.52H773.328C771.816 1039.52 770.97 1040.27 770.97 1041.6V1041.68C770.97 1042.38 771.42 1043.04 772.05 1043.3L775.542 1044.65C776.91 1045.19 777.576 1046.09 777.576 1047.53V1047.72C777.576 1049.87 775.992 1051.18 773.418 1051.18C770.808 1051.18 769.242 1049.83 769.242 1047.65V1046.77H770.826ZM807.197 1046.03C807.197 1045.76 807.053 1045.62 806.801 1045.62H803.003C802.733 1045.62 802.607 1045.76 802.607 1046.03V1051H801.059V1038.4H802.607V1043.82C802.607 1044.07 802.733 1044.21 803.003 1044.21H806.801C807.053 1044.21 807.197 1044.07 807.197 1043.82V1038.4H808.727V1051.02H807.197V1046.03ZM834.496 1045.28C834.244 1045.28 834.1 1045.4 834.1 1045.67V1049.22C834.1 1049.47 834.244 1049.6 834.496 1049.6H840.562V1051H832.552V1038.4H840.562V1039.79H834.496C834.244 1039.79 834.1 1039.91 834.1 1040.18V1043.51C834.1 1043.76 834.244 1043.91 834.496 1043.91H839.896V1045.28H834.496ZM865.305 1046.77V1047.65C865.305 1049.06 866.223 1049.87 867.825 1049.87H867.969C869.571 1049.87 870.507 1049.07 870.507 1047.72V1047.62C870.507 1046.84 870.165 1046.28 869.589 1046.05L866.097 1044.7C864.657 1044.12 863.901 1043.13 863.901 1041.78V1041.57C863.901 1039.46 865.395 1038.22 867.915 1038.22C870.417 1038.22 871.875 1039.44 871.875 1041.57V1042.22H870.327V1041.73C870.327 1040.33 869.481 1039.52 867.951 1039.52H867.807C866.295 1039.52 865.449 1040.27 865.449 1041.6V1041.68C865.449 1042.38 865.899 1043.04 866.529 1043.3L870.021 1044.65C871.389 1045.19 872.055 1046.09 872.055 1047.53V1047.72C872.055 1049.87 870.471 1051.18 867.897 1051.18C865.287 1051.18 863.721 1049.83 863.721 1047.65V1046.77H865.305ZM901.676 1046.03C901.676 1045.76 901.532 1045.62 901.28 1045.62H897.482C897.212 1045.62 897.086 1045.76 897.086 1046.03V1051H895.538V1038.4H897.086V1043.82C897.086 1044.07 897.212 1044.21 897.482 1044.21H901.28C901.532 1044.21 901.676 1044.07 901.676 1043.82V1038.4H903.206V1051.02H901.676V1046.03ZM929.677 1039.71H927.301V1038.4H934.447V1039.71H932.071C931.801 1039.71 931.639 1039.88 931.639 1040.15V1049.24C931.639 1049.51 931.801 1049.67 932.071 1049.67H934.447V1051H927.301V1049.67H929.677C929.947 1049.67 930.109 1049.51 930.109 1049.24V1040.15C930.109 1039.88 929.947 1039.71 929.677 1039.71ZM958.524 1038.4H962.466C964.878 1038.4 966.498 1040 966.498 1042.41V1042.76C966.498 1045.17 964.896 1046.77 962.466 1046.77H960.072V1051H958.524V1038.4ZM960.072 1040.15V1045.01C960.072 1045.28 960.198 1045.42 960.468 1045.42H962.358C963.942 1045.42 964.95 1044.38 964.95 1042.74V1042.41C964.95 1040.79 963.942 1039.73 962.358 1039.73H960.468C960.198 1039.73 960.072 1039.88 960.072 1040.15ZM991.277 1046.77V1047.65C991.277 1049.06 992.195 1049.87 993.797 1049.87H993.941C995.543 1049.87 996.479 1049.07 996.479 1047.72V1047.62C996.479 1046.84 996.137 1046.28 995.561 1046.05L992.069 1044.7C990.629 1044.12 989.873 1043.13 989.873 1041.78V1041.57C989.873 1039.46 991.367 1038.22 993.887 1038.22C996.389 1038.22 997.847 1039.44 997.847 1041.57V1042.22H996.299V1041.73C996.299 1040.33 995.453 1039.52 993.923 1039.52H993.779C992.267 1039.52 991.421 1040.27 991.421 1041.6V1041.68C991.421 1042.38 991.871 1043.04 992.501 1043.3L995.993 1044.65C997.361 1045.19 998.027 1046.09 998.027 1047.53V1047.72C998.027 1049.87 996.443 1051.18 993.869 1051.18C991.259 1051.18 989.693 1049.83 989.693 1047.65V1046.77H991.277ZM1024.26 1051V1048.84H1026.42V1051H1024.26ZM1052.71 1046.99V1042.4C1052.71 1039.89 1054.37 1038.22 1056.84 1038.22C1059.32 1038.22 1060.98 1039.88 1060.98 1042.4V1046.99C1060.98 1049.49 1059.32 1051.18 1056.84 1051.18C1054.37 1051.18 1052.71 1049.49 1052.71 1046.99ZM1054.26 1047.08C1054.26 1048.66 1055.31 1049.78 1056.76 1049.78H1056.91C1058.38 1049.78 1059.43 1048.66 1059.43 1047.08V1042.31C1059.43 1040.74 1058.38 1039.61 1056.91 1039.61H1056.76C1055.31 1039.61 1054.26 1040.74 1054.26 1042.31V1047.08ZM1084.5 1038.4H1088.33C1090.81 1038.4 1092.2 1039.57 1092.2 1041.73V1042.05C1092.2 1043.57 1091.28 1044.75 1089.91 1045.01V1045.11C1090.42 1045.24 1090.71 1045.58 1090.94 1046.23L1092.54 1051H1090.9L1089.28 1046.12C1089.19 1045.83 1088.96 1045.67 1088.67 1045.67H1086.4C1086.17 1045.67 1086.04 1045.82 1086.04 1046.05V1051H1084.5V1038.4ZM1086.04 1040.11V1043.98C1086.04 1044.25 1086.17 1044.39 1086.44 1044.39H1088.22C1089.77 1044.39 1090.67 1043.6 1090.67 1042.25V1041.86C1090.67 1040.51 1089.77 1039.73 1088.22 1039.73H1086.44C1086.17 1039.73 1086.04 1039.88 1086.04 1040.11ZM1119.82 1045.55V1044.34H1123.96V1051H1122.59V1049.45H1122.49C1121.96 1050.53 1120.79 1051.18 1119.43 1051.18C1117.21 1051.18 1115.7 1049.49 1115.7 1046.99V1042.4C1115.7 1039.88 1117.36 1038.22 1119.82 1038.22C1122.31 1038.22 1123.96 1039.89 1123.96 1042.4V1042.45H1122.41V1042.31C1122.41 1040.74 1121.37 1039.61 1119.89 1039.61H1119.75C1118.29 1039.61 1117.25 1040.74 1117.25 1042.31V1047.08C1117.25 1048.66 1118.29 1049.78 1119.75 1049.78H1119.89C1121.37 1049.78 1122.41 1048.66 1122.41 1047.08V1045.55H1119.82Z" fill="#E9A1C9" style="fill:#E9A1C9;fill:color(display-p3 0.9137 0.6314 0.7882);fill-opacity:1;"/>
<path d="M263.483 197.19H259.523V195H271.433V197.19H267.473C267.023 197.19 266.753 197.46 266.753 197.91V213.06C266.753 213.51 267.023 213.78 267.473 213.78H271.433V216H259.523V213.78H263.483C263.933 213.78 264.203 213.51 264.203 213.06V197.91C264.203 197.46 263.933 197.19 263.483 197.19ZM306.75 208.95V210.42C306.75 212.76 308.28 214.11 310.95 214.11H311.19C313.86 214.11 315.42 212.79 315.42 210.54V210.36C315.42 209.07 314.85 208.14 313.89 207.75L308.07 205.5C305.67 204.54 304.41 202.89 304.41 200.64V200.28C304.41 196.77 306.9 194.7 311.1 194.7C315.27 194.7 317.7 196.74 317.7 200.28V201.36H315.12V200.55C315.12 198.21 313.71 196.86 311.16 196.86H310.92C308.4 196.86 306.99 198.12 306.99 200.34V200.46C306.99 201.63 307.74 202.74 308.79 203.16L314.61 205.41C316.89 206.31 318 207.81 318 210.21V210.54C318 214.11 315.36 216.3 311.07 216.3C306.72 216.3 304.11 214.05 304.11 210.42V208.95H306.75ZM337.668 207.72C337.668 207.27 337.428 207.03 337.008 207.03H330.678C330.228 207.03 330.018 207.27 330.018 207.72V216H327.438V195H330.018V204.03C330.018 204.45 330.228 204.69 330.678 204.69H337.008C337.428 204.69 337.668 204.45 337.668 204.03V195H340.218V216.03H337.668V207.72ZM354.636 197.19H350.676V195H362.586V197.19H358.626C358.176 197.19 357.906 197.46 357.906 197.91V213.06C357.906 213.51 358.176 213.78 358.626 213.78H362.586V216H350.676V213.78H354.636C355.086 213.78 355.356 213.51 355.356 213.06V197.91C355.356 197.46 355.086 197.19 354.636 197.19ZM373.015 195H379.585C383.605 195 386.305 197.67 386.305 201.69V202.26C386.305 206.28 383.635 208.95 379.585 208.95H375.595V216H373.015V195ZM375.595 197.91V206.01C375.595 206.46 375.805 206.7 376.255 206.7H379.405C382.045 206.7 383.725 204.96 383.725 202.23V201.69C383.725 198.99 382.045 197.22 379.405 197.22H376.255C375.805 197.22 375.595 197.46 375.595 197.91ZM395.803 195H402.373C406.393 195 409.093 197.67 409.093 201.69V202.26C409.093 206.28 406.423 208.95 402.373 208.95H398.383V216H395.803V195ZM398.383 197.91V206.01C398.383 206.46 398.593 206.7 399.043 206.7H402.193C404.833 206.7 406.513 204.96 406.513 202.23V201.69C406.513 198.99 404.833 197.22 402.193 197.22H399.043C398.593 197.22 398.383 197.46 398.383 197.91ZM421.831 206.46C421.411 206.46 421.171 206.67 421.171 207.12V213.03C421.171 213.45 421.411 213.66 421.831 213.66H431.941V216H418.591V195H431.941V197.31H421.831C421.411 197.31 421.171 197.52 421.171 197.97V203.52C421.171 203.94 421.411 204.18 421.831 204.18H430.831V206.46H421.831ZM447.89 216H441.38V195H447.89C451.94 195 454.67 197.79 454.67 201.96V209.07C454.67 213.24 451.97 216 447.89 216ZM443.96 197.97V213C443.96 213.45 444.17 213.69 444.62 213.69H447.77C450.29 213.69 452.09 211.77 452.09 209.22V201.75C452.09 199.2 450.29 197.31 447.77 197.31H444.62C444.17 197.31 443.96 197.55 443.96 197.97ZM491.366 197.19H487.406V195H499.316V197.19H495.356C494.906 197.19 494.636 197.46 494.636 197.91V213.06C494.636 213.51 494.906 213.78 495.356 213.78H499.316V216H487.406V213.78H491.366C491.816 213.78 492.086 213.51 492.086 213.06V197.91C492.086 197.46 491.816 197.19 491.366 197.19ZM517.424 198.03V216H514.874V198.03C514.874 197.55 514.604 197.31 514.154 197.31H508.964V195H523.334V197.31H518.144C517.694 197.31 517.424 197.55 517.424 198.03ZM537.123 216V212.4H540.723V216H537.123ZM585.789 198.03V216H583.239V198.03C583.239 197.55 582.969 197.31 582.519 197.31H577.329V195H591.699V197.31H586.509C586.059 197.31 585.789 197.55 585.789 198.03ZM611.127 207.72C611.127 207.27 610.887 207.03 610.467 207.03H604.137C603.687 207.03 603.477 207.27 603.477 207.72V216H600.897V195H603.477V204.03C603.477 204.45 603.687 204.69 604.137 204.69H610.467C610.887 204.69 611.127 204.45 611.127 204.03V195H613.677V216.03H611.127V207.72ZM626.926 206.46C626.506 206.46 626.266 206.67 626.266 207.12V213.03C626.266 213.45 626.506 213.66 626.926 213.66H637.036V216H623.686V195H637.036V197.31H626.926C626.506 197.31 626.266 197.52 626.266 197.97V203.52C626.266 203.94 626.506 204.18 626.926 204.18H635.926V206.46H626.926ZM648.574 208.95V210.42C648.574 212.76 650.104 214.11 652.774 214.11H653.014C655.684 214.11 657.244 212.79 657.244 210.54V210.36C657.244 209.07 656.674 208.14 655.714 207.75L649.894 205.5C647.494 204.54 646.234 202.89 646.234 200.64V200.28C646.234 196.77 648.724 194.7 652.924 194.7C657.094 194.7 659.524 196.74 659.524 200.28V201.36H656.944V200.55C656.944 198.21 655.534 196.86 652.984 196.86H652.744C650.224 196.86 648.814 198.12 648.814 200.34V200.46C648.814 201.63 649.564 202.74 650.614 203.16L656.434 205.41C658.714 206.31 659.824 207.81 659.824 210.21V210.54C659.824 214.11 657.184 216.3 652.894 216.3C648.544 216.3 645.934 214.05 645.934 210.42V208.95H648.574ZM672.502 206.46C672.082 206.46 671.842 206.67 671.842 207.12V213.03C671.842 213.45 672.082 213.66 672.502 213.66H682.612V216H669.262V195H682.612V197.31H672.502C672.082 197.31 671.842 197.52 671.842 197.97V203.52C671.842 203.94 672.082 204.18 672.502 204.18H681.502V206.46H672.502ZM724.469 210.18C724.379 209.7 724.139 209.46 723.689 209.46H718.799C718.349 209.46 718.109 209.7 718.019 210.18L716.609 216H713.969L718.649 196.8C718.949 195.54 719.579 195 720.839 195H723.389L728.519 216H725.879L724.469 210.18ZM718.649 206.67C718.559 207.12 718.739 207.36 719.189 207.36H723.299C723.749 207.36 723.929 207.12 723.839 206.67L721.739 197.64C721.679 197.37 721.559 197.25 721.229 197.25C720.929 197.25 720.779 197.37 720.749 197.64L718.649 206.67ZM737.627 195H744.017C748.157 195 750.467 196.95 750.467 200.55V201.09C750.467 203.61 748.937 205.59 746.657 206.01V206.19C747.497 206.4 747.977 206.97 748.367 208.05L751.037 216H748.307L745.607 207.87C745.457 207.39 745.067 207.12 744.587 207.12H740.807C740.417 207.12 740.207 207.36 740.207 207.75V216H737.627V195ZM740.207 197.85V204.3C740.207 204.75 740.417 204.99 740.867 204.99H743.837C746.417 204.99 747.917 203.67 747.917 201.42V200.76C747.917 198.51 746.417 197.22 743.837 197.22H740.867C740.417 197.22 740.207 197.46 740.207 197.85ZM763.655 206.46C763.235 206.46 762.995 206.67 762.995 207.12V213.03C762.995 213.45 763.235 213.66 763.655 213.66H773.765V216H760.415V195H773.765V197.31H763.655C763.235 197.31 762.995 197.52 762.995 197.97V203.52C762.995 203.94 763.235 204.18 763.655 204.18H772.655V206.46H763.655ZM813.672 198.03V216H811.122V198.03C811.122 197.55 810.852 197.31 810.402 197.31H805.212V195H819.582V197.31H814.392C813.942 197.31 813.672 197.55 813.672 198.03ZM839.01 207.72C839.01 207.27 838.77 207.03 838.35 207.03H832.02C831.57 207.03 831.36 207.27 831.36 207.72V216H828.78V195H831.36V204.03C831.36 204.45 831.57 204.69 832.02 204.69H838.35C838.77 204.69 839.01 204.45 839.01 204.03V195H841.56V216.03H839.01V207.72ZM854.809 206.46C854.389 206.46 854.149 206.67 854.149 207.12V213.03C854.149 213.45 854.389 213.66 854.809 213.66H864.919V216H851.569V195H864.919V197.31H854.809C854.389 197.31 854.149 197.52 854.149 197.97V203.52C854.149 203.94 854.389 204.18 854.809 204.18H863.809V206.46H854.809ZM897.145 216V195H903.985C908.035 195 910.045 196.68 910.045 200.1V200.97C910.045 203.22 909.205 204.6 907.465 205.23C909.475 205.86 910.435 207.27 910.435 209.64V210.87C910.435 214.29 908.425 216 904.345 216H897.145ZM899.725 203.61C899.725 204.03 899.935 204.27 900.385 204.27H903.535C906.355 204.27 907.495 203.37 907.495 201.15V200.34C907.495 198.15 906.355 197.22 903.535 197.22H900.385C899.935 197.22 899.725 197.46 899.725 197.91V203.61ZM899.725 213.06C899.725 213.51 899.935 213.75 900.385 213.75H903.925C906.715 213.75 907.855 212.82 907.855 210.63V209.43C907.855 207.24 906.715 206.31 903.925 206.31H900.385C899.935 206.31 899.725 206.55 899.725 207V213.06ZM929.563 210.18C929.473 209.7 929.233 209.46 928.783 209.46H923.893C923.443 209.46 923.203 209.7 923.113 210.18L921.703 216H919.063L923.743 196.8C924.043 195.54 924.673 195 925.933 195H928.483L933.613 216H930.973L929.563 210.18ZM923.743 206.67C923.653 207.12 923.833 207.36 924.283 207.36H928.393C928.843 207.36 929.023 207.12 928.933 206.67L926.833 197.64C926.773 197.37 926.653 197.25 926.323 197.25C926.023 197.25 925.873 197.37 925.843 197.64L923.743 206.67ZM949.232 216H942.722V195H949.232C953.282 195 956.012 197.79 956.012 201.96V209.07C956.012 213.24 953.312 216 949.232 216ZM945.302 197.97V213C945.302 213.45 945.512 213.69 945.962 213.69H949.112C951.632 213.69 953.432 211.77 953.432 209.22V201.75C953.432 199.2 951.632 197.31 949.112 197.31H945.962C945.512 197.31 945.302 197.55 945.302 197.97ZM971.9 206.91V204.9H978.8V216H976.52V213.42H976.34C975.47 215.22 973.52 216.3 971.24 216.3C967.55 216.3 965.03 213.48 965.03 209.31V201.66C965.03 197.46 967.79 194.7 971.9 194.7C976.04 194.7 978.8 197.49 978.8 201.66V201.75H976.22V201.51C976.22 198.9 974.48 197.01 972.02 197.01H971.78C969.35 197.01 967.61 198.9 967.61 201.51V209.46C967.61 212.1 969.35 213.96 971.78 213.96H972.02C974.48 213.96 976.22 212.1 976.22 209.46V206.91H971.9ZM991.538 206.46C991.118 206.46 990.878 206.67 990.878 207.12V213.03C990.878 213.45 991.118 213.66 991.538 213.66H1001.65V216H988.298V195H1001.65V197.31H991.538C991.118 197.31 990.878 197.52 990.878 197.97V203.52C990.878 203.94 991.118 204.18 991.538 204.18H1000.54V206.46H991.538ZM1013.19 208.95V210.42C1013.19 212.76 1014.72 214.11 1017.39 214.11H1017.63C1020.3 214.11 1021.86 212.79 1021.86 210.54V210.36C1021.86 209.07 1021.29 208.14 1020.33 207.75L1014.51 205.5C1012.11 204.54 1010.85 202.89 1010.85 200.64V200.28C1010.85 196.77 1013.34 194.7 1017.54 194.7C1021.71 194.7 1024.14 196.74 1024.14 200.28V201.36H1021.56V200.55C1021.56 198.21 1020.15 196.86 1017.6 196.86H1017.36C1014.84 196.86 1013.43 198.12 1013.43 200.34V200.46C1013.43 201.63 1014.18 202.74 1015.23 203.16L1021.05 205.41C1023.33 206.31 1024.44 207.81 1024.44 210.21V210.54C1024.44 214.11 1021.8 216.3 1017.51 216.3C1013.16 216.3 1010.55 214.05 1010.55 210.42V208.95H1013.19ZM1061.07 197.19H1057.11V195H1069.02V197.19H1065.06C1064.61 197.19 1064.34 197.46 1064.34 197.91V213.06C1064.34 213.51 1064.61 213.78 1065.06 213.78H1069.02V216H1057.11V213.78H1061.07C1061.52 213.78 1061.79 213.51 1061.79 213.06V197.91C1061.79 197.46 1061.52 197.19 1061.07 197.19ZM1105.48 206.46C1105.06 206.46 1104.82 206.67 1104.82 207.12V213.03C1104.82 213.45 1105.06 213.66 1105.48 213.66H1115.59V216H1102.24V195H1115.59V197.31H1105.48C1105.06 197.31 1104.82 197.52 1104.82 197.97V203.52C1104.82 203.94 1105.06 204.18 1105.48 204.18H1114.48V206.46H1105.48ZM1134.66 210.18C1134.57 209.7 1134.33 209.46 1133.88 209.46H1128.99C1128.54 209.46 1128.3 209.7 1128.21 210.18L1126.8 216H1124.16L1128.84 196.8C1129.14 195.54 1129.77 195 1131.03 195H1133.58L1138.71 216H1136.07L1134.66 210.18ZM1128.84 206.67C1128.75 207.12 1128.93 207.36 1129.38 207.36H1133.49C1133.94 207.36 1134.12 207.12 1134.03 206.67L1131.93 197.64C1131.87 197.37 1131.75 197.25 1131.42 197.25C1131.12 197.25 1130.97 197.37 1130.94 197.64L1128.84 206.67ZM1147.82 195H1154.21C1158.35 195 1160.66 196.95 1160.66 200.55V201.09C1160.66 203.61 1159.13 205.59 1156.85 206.01V206.19C1157.69 206.4 1158.17 206.97 1158.56 208.05L1161.23 216H1158.5L1155.8 207.87C1155.65 207.39 1155.26 207.12 1154.78 207.12H1151C1150.61 207.12 1150.4 207.36 1150.4 207.75V216H1147.82V195ZM1150.4 197.85V204.3C1150.4 204.75 1150.61 204.99 1151.06 204.99H1154.03C1156.61 204.99 1158.11 203.67 1158.11 201.42V200.76C1158.11 198.51 1156.61 197.22 1154.03 197.22H1151.06C1150.61 197.22 1150.4 197.46 1150.4 197.85ZM1183.41 195V216H1181.07L1173.66 201.36C1173.51 201.09 1173.33 200.97 1173.18 200.97C1172.94 200.97 1172.76 201.18 1172.79 201.57L1172.97 216H1170.6V195H1172.94L1180.35 209.61C1180.5 209.88 1180.68 210 1180.83 210C1181.07 210 1181.25 209.79 1181.22 209.4L1181.04 195H1183.41ZM1196.63 206.46C1196.21 206.46 1195.97 206.67 1195.97 207.12V213.03C1195.97 213.45 1196.21 213.66 1196.63 213.66H1206.74V216H1193.39V195H1206.74V197.31H1196.63C1196.21 197.31 1195.97 197.52 1195.97 197.97V203.52C1195.97 203.94 1196.21 204.18 1196.63 204.18H1205.63V206.46H1196.63ZM1222.69 216H1216.18V195H1222.69C1226.74 195 1229.47 197.79 1229.47 201.96V209.07C1229.47 213.24 1226.77 216 1222.69 216ZM1218.76 197.97V213C1218.76 213.45 1218.97 213.69 1219.42 213.69H1222.57C1225.09 213.69 1226.89 211.77 1226.89 209.22V201.75C1226.89 199.2 1225.09 197.31 1222.57 197.31H1219.42C1218.97 197.31 1218.76 197.55 1218.76 197.97ZM1271.39 210.18C1271.3 209.7 1271.06 209.46 1270.61 209.46H1265.72C1265.27 209.46 1265.03 209.7 1264.94 210.18L1263.53 216H1260.89L1265.57 196.8C1265.87 195.54 1266.5 195 1267.76 195H1270.31L1275.44 216H1272.8L1271.39 210.18ZM1265.57 206.67C1265.48 207.12 1265.66 207.36 1266.11 207.36H1270.22C1270.67 207.36 1270.85 207.12 1270.76 206.67L1268.66 197.64C1268.6 197.37 1268.48 197.25 1268.15 197.25C1267.85 197.25 1267.7 197.37 1267.67 197.64L1265.57 206.67ZM1292.23 198.03V216H1289.68V198.03C1289.68 197.55 1289.41 197.31 1288.96 197.31H1283.77V195H1298.14V197.31H1292.95C1292.5 197.31 1292.23 197.55 1292.23 198.03Z" fill="white" style="fill:white;fill-opacity:1;"/>
<path d="M1332.22 208.95V210.42C1332.22 212.76 1333.75 214.11 1336.42 214.11H1336.66C1339.33 214.11 1340.89 212.79 1340.89 210.54V210.36C1340.89 209.07 1340.32 208.14 1339.36 207.75L1333.54 205.5C1331.14 204.54 1329.88 202.89 1329.88 200.64V200.28C1329.88 196.77 1332.37 194.7 1336.57 194.7C1340.74 194.7 1343.17 196.74 1343.17 200.28V201.36H1340.59V200.55C1340.59 198.21 1339.18 196.86 1336.63 196.86H1336.39C1333.87 196.86 1332.46 198.12 1332.46 200.34V200.46C1332.46 201.63 1333.21 202.74 1334.26 203.16L1340.08 205.41C1342.36 206.31 1343.47 207.81 1343.47 210.21V210.54C1343.47 214.11 1340.83 216.3 1336.54 216.3C1332.19 216.3 1329.58 214.05 1329.58 210.42V208.95H1332.22ZM1363.14 207.72C1363.14 207.27 1362.9 207.03 1362.48 207.03H1356.15C1355.7 207.03 1355.49 207.27 1355.49 207.72V216H1352.91V195H1355.49V204.03C1355.49 204.45 1355.7 204.69 1356.15 204.69H1362.48C1362.9 204.69 1363.14 204.45 1363.14 204.03V195H1365.69V216.03H1363.14V207.72ZM1378.94 206.46C1378.52 206.46 1378.28 206.67 1378.28 207.12V213.03C1378.28 213.45 1378.52 213.66 1378.94 213.66H1389.05V216H1375.7V195H1389.05V197.31H1378.94C1378.52 197.31 1378.28 197.52 1378.28 197.97V203.52C1378.28 203.94 1378.52 204.18 1378.94 204.18H1387.94V206.46H1378.94ZM1423.38 208.95V210.42C1423.38 212.76 1424.91 214.11 1427.58 214.11H1427.82C1430.49 214.11 1432.05 212.79 1432.05 210.54V210.36C1432.05 209.07 1431.48 208.14 1430.52 207.75L1424.7 205.5C1422.3 204.54 1421.04 202.89 1421.04 200.64V200.28C1421.04 196.77 1423.53 194.7 1427.73 194.7C1431.9 194.7 1434.33 196.74 1434.33 200.28V201.36H1431.75V200.55C1431.75 198.21 1430.34 196.86 1427.79 196.86H1427.55C1425.03 196.86 1423.62 198.12 1423.62 200.34V200.46C1423.62 201.63 1424.37 202.74 1425.42 203.16L1431.24 205.41C1433.52 206.31 1434.63 207.81 1434.63 210.21V210.54C1434.63 214.11 1431.99 216.3 1427.7 216.3C1423.35 216.3 1420.74 214.05 1420.74 210.42V208.95H1423.38ZM1454.29 207.72C1454.29 207.27 1454.05 207.03 1453.63 207.03H1447.3C1446.85 207.03 1446.64 207.27 1446.64 207.72V216H1444.06V195H1446.64V204.03C1446.64 204.45 1446.85 204.69 1447.3 204.69H1453.63C1454.05 204.69 1454.29 204.45 1454.29 204.03V195H1456.84V216.03H1454.29V207.72ZM1471.26 197.19H1467.3V195H1479.21V197.19H1475.25C1474.8 197.19 1474.53 197.46 1474.53 197.91V213.06C1474.53 213.51 1474.8 213.78 1475.25 213.78H1479.21V216H1467.3V213.78H1471.26C1471.71 213.78 1471.98 213.51 1471.98 213.06V197.91C1471.98 197.46 1471.71 197.19 1471.26 197.19ZM1489.64 195H1496.21C1500.23 195 1502.93 197.67 1502.93 201.69V202.26C1502.93 206.28 1500.26 208.95 1496.21 208.95H1492.22V216H1489.64V195ZM1492.22 197.91V206.01C1492.22 206.46 1492.43 206.7 1492.88 206.7H1496.03C1498.67 206.7 1500.35 204.96 1500.35 202.23V201.69C1500.35 198.99 1498.67 197.22 1496.03 197.22H1492.88C1492.43 197.22 1492.22 197.46 1492.22 197.91ZM1514.53 208.95V210.42C1514.53 212.76 1516.06 214.11 1518.73 214.11H1518.97C1521.64 214.11 1523.2 212.79 1523.2 210.54V210.36C1523.2 209.07 1522.63 208.14 1521.67 207.75L1515.85 205.5C1513.45 204.54 1512.19 202.89 1512.19 200.64V200.28C1512.19 196.77 1514.68 194.7 1518.88 194.7C1523.05 194.7 1525.48 196.74 1525.48 200.28V201.36H1522.9V200.55C1522.9 198.21 1521.49 196.86 1518.94 196.86H1518.7C1516.18 196.86 1514.77 198.12 1514.77 200.34V200.46C1514.77 201.63 1515.52 202.74 1516.57 203.16L1522.39 205.41C1524.67 206.31 1525.78 207.81 1525.78 210.21V210.54C1525.78 214.11 1523.14 216.3 1518.85 216.3C1514.5 216.3 1511.89 214.05 1511.89 210.42V208.95H1514.53ZM1560.98 212.25V213C1560.98 213.42 1561.16 213.6 1561.58 213.6H1570.82V216H1558.01V213.21C1558.01 212.16 1558.4 211.2 1559.09 210.48L1566.83 202.08C1568.66 200.1 1567.94 197.37 1565.63 197.37H1558.16V195H1565.57C1568.87 195 1570.67 196.41 1570.67 198.99C1570.67 200.52 1570.01 201.87 1568.69 203.25L1561.4 211.29C1561.1 211.59 1560.98 211.86 1560.98 212.25ZM1580.79 209.79V201.18C1580.79 197.13 1583.22 194.7 1587.18 194.7C1591.17 194.7 1593.6 197.13 1593.6 201.18V209.79C1593.6 213.84 1591.17 216.3 1587.18 216.3C1583.22 216.3 1580.79 213.84 1580.79 209.79ZM1583.31 207.81L1590.9 199.74C1590.48 198.06 1589.19 197.01 1587.3 197.01H1587.06C1584.75 197.01 1583.31 198.57 1583.31 201.06V207.81ZM1591.08 209.91V202.62L1583.37 210.78C1583.67 212.76 1585.02 213.96 1587.06 213.96H1587.3C1589.64 213.96 1591.08 212.4 1591.08 209.91ZM1606.55 212.25V213C1606.55 213.42 1606.73 213.6 1607.15 213.6H1616.39V216H1603.58V213.21C1603.58 212.16 1603.97 211.2 1604.66 210.48L1612.4 202.08C1614.23 200.1 1613.51 197.37 1611.2 197.37H1603.73V195H1611.14C1614.44 195 1616.24 196.41 1616.24 198.99C1616.24 200.52 1615.58 201.87 1614.26 203.25L1606.97 211.29C1606.67 211.59 1606.55 211.86 1606.55 212.25ZM1631.5 195H1634.2L1630.15 202.8C1631.02 202.29 1632.04 202.05 1633.24 202.05C1637.17 202.05 1639.66 204.78 1639.66 209.13C1639.66 213.54 1637.05 216.3 1632.7 216.3C1628.41 216.3 1625.89 213.63 1625.89 209.1C1625.89 206.85 1626.52 204.63 1628.11 201.57L1631.5 195ZM1628.41 209.1C1628.41 212.31 1629.88 213.96 1632.76 213.96H1632.79C1635.67 213.96 1637.14 212.31 1637.14 209.1V208.95C1637.14 205.89 1635.55 204.12 1632.79 204.12H1632.76C1630 204.12 1628.41 205.89 1628.41 208.95V209.1ZM1648.68 218.04V216H1662.45V218.04H1648.68Z" fill="#E9A1C9" style="fill:#E9A1C9;fill:color(display-p3 0.9137 0.6314 0.7882);fill-opacity:1;"/>
</g>
<defs>
<linearGradient id="paint0_linear_309_1451" x1="3886" y1="5000" x2="1440" y2="750.5" gradientUnits="userSpaceOnUse">
<stop stop-color="#E9A1C9" stop-opacity="0.5" style="stop-color:#E9A1C9;stop-color:color(display-p3 0.9137 0.6314 0.7882);stop-opacity:0.5;"/>
<stop offset="1" stop-color="#0C0C0C" style="stop-color:#0C0C0C;stop-color:color(display-p3 0.0471 0.0471 0.0471);stop-opacity:1;"/>
</linearGradient>
<linearGradient id="paint1_linear_309_1451" x1="1474" y1="609" x2="1741.5" y2="1419" gradientUnits="userSpaceOnUse">
<stop stop-color="#242424" style="stop-color:#242424;stop-color:color(display-p3 0.1428 0.1428 0.1428);stop-opacity:1;"/>
<stop offset="1" stop-color="#E9A1C9" style="stop-color:#E9A1C9;stop-color:color(display-p3 0.9137 0.6314 0.7882);stop-opacity:1;"/>
</linearGradient>
<clipPath id="clip0_309_1451">
<rect width="1920" height="1080" fill="white" style="fill:white;fill-opacity:1;"/>
</clipPath>
</defs>
</svg>
